0.06m3min_grf.mot
version=1
nRows=10
nColumns 19
inDegrees=yes
endheader
time	1_ground_force_vx	1_ground_force_vy	1_ground_force_vz	1_ground_force_px	1_ground_force_py	1_ground_force_pz	1_ground_torque_x	1_ground_torque_y	1_ground_torque_z	2_ground_force_vx	2_ground_force_vy	2_ground_force_vz	2_ground_force_px	2_ground_force_py	2_ground_force_pz	2_ground_torque_x	2_ground_torque_y	2_ground_torque_z
            2.502500	           -0.000059	            4.685531	            0.341088	           -0.233013	            0.005581	           -0.255695	            0.340211	           -0.296033	            0.072912	            0.417503	            0.928959	           -1.874018	           -0.232311	            0.006130	           -0.833667	           -0.131631	            0.009785	           -0.226113
            2.503000	           -0.182295	            5.944996	            0.897225	           -0.233013	            0.005581	           -0.255695	            0.259497	           -0.240492	            0.027890	            0.509107	            1.482579	           -2.106727	           -0.232311	            0.006130	           -0.833667	           -0.188046	            0.019236	           -0.282606
            2.503500	           -0.045203	            5.224943	            0.664512	           -0.233013	            0.005581	           -0.255695	            0.419787	           -0.230921	           -0.022971	            0.695903	            1.666902	           -1.965366	           -0.232311	            0.006130	           -0.833667	           -0.225448	           -0.009796	           -0.131889
            2.504000	            0.504654	            4.144242	            0.475086	           -0.233013	            0.005581	           -0.255695	            0.372123	           -0.147654	            0.038596	            0.273651	            1.849026	           -1.823745	           -0.232311	            0.006130	           -0.833667	           -0.187433	           -0.141729	           -0.207778
            2.504500	            0.549308	            5.047349	            0.066134	           -0.233013	            0.005581	           -0.255695	            0.483101	           -0.157031	            0.077799	            0.272925	            2.033676	           -1.963872	           -0.232311	            0.006130	           -0.833667	           -0.169253	            0.028420	           -0.188329
            2.505000	            0.778101	            4.867914	           -0.118632	           -0.233013	            0.005581	           -0.255695	            0.359520	           -0.165958	            0.031453	            0.369989	            1.112938	           -1.873341	           -0.232311	            0.006130	           -0.833667	           -0.056278	           -0.028360	           -0.056628
            2.505500	            0.686870	            4.867109	            0.065019	           -0.233013	            0.005581	           -0.255695	            0.426879	           -0.212358	            0.064774	            0.086149	            1.849186	           -2.058306	           -0.232311	            0.006130	           -0.833667	           -0.206602	           -0.037750	           -0.226249
            2.506000	            0.091073	            5.227132	            0.159756	           -0.233013	            0.005581	           -0.255695	            0.366231	           -0.286346	           -0.017211	            0.463730	            1.112942	           -1.779525	           -0.232311	            0.006130	           -0.833667	           -0.206660	           -0.028096	           -0.282766
            2.506500	            0.275715	            4.504139	            0.614768	           -0.233013	            0.005581	           -0.255695	            0.347441	           -0.286733	            0.103467	            0.416174	            1.297256	           -1.872704	           -0.232311	            0.006130	           -0.833667	           -0.206772	            0.009513	           -0.226081
            2.507000	           -0.274547	            4.684495	            0.571051	           -0.233013	            0.005581	           -0.255695	            0.443021	           -0.203698	            0.061324	            0.321145	            1.665214	           -1.871350	           -0.232311	            0.006130	           -0.833667	           -0.188029	            0.019101	           -0.244905
